# WaveFront *.obj file (generated by CINEMA 4D)

mtllib ./movel.mtl

v 12.5459680557251 78.22208404541016 193.89122009277344
v 12.5459680557251 607.71441650390625 193.89122009277344
v -592.33819580078125 78.22208404541016 193.89122009277344
v -592.33819580078125 607.71441650390625 193.89122009277344
v -592.33819580078125 78.22208404541016 218.00727844238281
v -592.33819580078125 607.71441650390625 218.00727844238281
v 12.5459680557251 78.22208404541016 218.00727844238281
v 12.5459680557251 607.71441650390625 218.00727844238281
# 8 vertices

vn 0 0 -1
vn -1 0 0
vn 0 0 1
vn 1 0 0
vn 0 1 0
vn 0 -1 0
# 6 normals

vt 0 0 0
vt 0 1 0
vt 1 1 0
vt 1 0 0
# 4 texture coordinates

o porta1
usemtl default
f 3/4/1 4/3/1 2/2/1 1/1/1
f 5/4/2 6/3/2 4/2/2 3/1/2
f 7/4/3 8/3/3 6/2/3 5/1/3
f 1/4/4 2/3/4 8/2/4 7/1/4
f 4/4/5 6/3/5 8/2/5 2/1/5
f 5/4/6 3/3/6 1/2/6 7/1/6

v 564.713134765625 78.22208404541016 169.88514709472656
v 564.713134765625 607.71441650390625 169.88514709472656
v -40.1710090637207 78.22208404541016 169.88514709472656
v -40.1710090637207 607.71441650390625 169.88514709472656
v -40.1710090637207 78.22208404541016 194.00120544433594
v -40.1710090637207 607.71441650390625 194.00120544433594
v 564.713134765625 78.22208404541016 194.00120544433594
v 564.713134765625 607.71441650390625 194.00120544433594
# 8 vertices

# 0 normal

# 0 texture coordinate

o porta2
usemtl default
f 11/4/1 12/3/1 10/2/1 9/1/1
f 13/4/2 14/3/2 12/2/2 11/1/2
f 15/4/3 16/3/3 14/2/3 13/1/3
f 9/4/4 10/3/4 16/2/4 15/1/4
f 12/4/5 14/3/5 16/2/5 10/1/5
f 13/4/6 11/3/6 9/2/6 15/1/6

v -597.77117919921875 52.67252349853516 194.45602416992188
v 598.88836669921875 52.67252349853516 194.45602416992188
v -597.77117919921875 52.67252349853516 -190.17446899414062
v 598.88836669921875 52.67252349853516 -190.17446899414062
v -597.77117919921875 76.78858184814453 -190.17446899414062
v 598.88836669921875 76.78858184814453 -190.17446899414062
v -597.77117919921875 76.78858184814453 194.45602416992188
v 598.88836669921875 76.78858184814453 194.45602416992188
# 8 vertices

# 0 normal

# 0 texture coordinate

o Cube.4
usemtl default
f 19/4/6 20/3/6 18/2/6 17/1/6
f 21/4/1 22/3/1 20/2/1 19/1/1
f 23/4/5 24/3/5 22/2/5 21/1/5
f 17/4/3 18/3/3 24/2/3 23/1/3
f 20/4/4 22/3/4 24/2/4 18/1/4
f 21/4/2 19/3/2 17/2/2 23/1/2

v -597.77117919921875 606.968505859375 222.33056640625
v 598.88836669921875 606.968505859375 222.33056640625
v -597.77117919921875 606.968505859375 -190.30325317382812
v 598.88836669921875 606.968505859375 -190.30325317382812
v -597.77117919921875 631.0845947265625 -190.30325317382812
v 598.88836669921875 631.0845947265625 -190.30325317382812
v -597.77117919921875 631.0845947265625 222.33056640625
v 598.88836669921875 631.0845947265625 222.33056640625
# 8 vertices

# 0 normal

# 0 texture coordinate

o Cube.3
usemtl default
f 27/4/6 28/3/6 26/2/6 25/1/6
f 29/4/1 30/3/1 28/2/1 27/1/1
f 31/4/5 32/3/5 30/2/5 29/1/5
f 25/4/3 26/3/3 32/2/3 31/1/3
f 28/4/4 30/3/4 32/2/4 26/1/4
f 29/4/2 27/3/2 25/2/2 31/1/2

v 588.232421875 72.91786193847656 194.45602416992188
v 588.232421875 622.6231689453125 194.45602416992188
v 588.232421875 72.91786193847656 -190.17446899414062
v 588.232421875 622.6231689453125 -190.17446899414062
v 564.11639404296875 72.91786193847656 -190.17446899414062
v 564.11639404296875 622.6231689453125 -190.17446899414062
v 564.11639404296875 72.91786193847656 194.45602416992188
v 564.11639404296875 622.6231689453125 194.45602416992188
# 8 vertices

# 0 normal

# 0 texture coordinate

o Cube.2
usemtl default
f 35/4/4 36/3/4 34/2/4 33/1/4
f 37/4/1 38/3/1 36/2/1 35/1/1
f 39/4/2 40/3/2 38/2/2 37/1/2
f 33/4/3 34/3/3 40/2/3 39/1/3
f 36/4/5 38/3/5 40/2/5 34/1/5
f 37/4/6 35/3/6 33/2/6 39/1/6

v -561.64697265625 72.91786193847656 194.45602416992188
v -561.64697265625 622.6231689453125 194.45602416992188
v -561.64697265625 72.91786193847656 -190.17446899414062
v -561.64697265625 622.6231689453125 -190.17446899414062
v -585.7630615234375 72.91786193847656 -190.17446899414062
v -585.7630615234375 622.6231689453125 -190.17446899414062
v -585.7630615234375 72.91786193847656 194.45602416992188
v -585.7630615234375 622.6231689453125 194.45602416992188
# 8 vertices

# 0 normal

# 0 texture coordinate

o Cube.1
usemtl default
f 43/4/4 44/3/4 42/2/4 41/1/4
f 45/4/1 46/3/1 44/2/1 43/1/1
f 47/4/2 48/3/2 46/2/2 45/1/2
f 41/4/3 42/3/3 48/2/3 47/1/3
f 44/4/5 46/3/5 48/2/5 42/1/5
f 45/4/6 43/3/6 41/2/6 47/1/6

v -586.36297607421875 72.91786193847656 -171.41119384765625
v -586.36297607421875 622.6231689453125 -171.41119384765625
v 586.36297607421875 72.91786193847656 -171.41119384765625
v 586.36297607421875 622.6231689453125 -171.41119384765625
v 586.36297607421875 72.91786193847656 -195.52725219726562
v 586.36297607421875 622.6231689453125 -195.52725219726562
v -586.36297607421875 72.91786193847656 -195.52725219726562
v -586.36297607421875 622.6231689453125 -195.52725219726562
# 8 vertices

# 0 normal

# 0 texture coordinate

o Cube
usemtl default
f 51/4/3 52/3/3 50/2/3 49/1/3
f 53/4/4 54/3/4 52/2/4 51/1/4
f 55/4/1 56/3/1 54/2/1 53/1/1
f 49/4/2 50/3/2 56/2/2 55/1/2
f 52/4/5 54/3/5 56/2/5 50/1/5
f 53/4/6 51/3/6 49/2/6 55/1/6

